<?xml version="1.0" encoding="iso-8859-1"?>
<!-- Uploaded to: SVG Repo, www.svgrepo.com, Generator: SVG Repo Mixer Tools -->
<svg version="1.1" id="Layer_1" xmlns="http://www.w3.org/2000/svg" xmlns:xlink="http://www.w3.org/1999/xlink" 
	 viewBox="0 0 512 512" xml:space="preserve">
<circle style="fill:#FFD15D;" cx="256" cy="256" r="256"/>
<path style="fill:#F9B54C;" d="M259.227,511.962c64.436-0.807,128.626-25.776,177.792-74.942
	c45.278-45.278,70.049-103.298,74.314-162.518L404.635,167.805l-67.225,92.819L232.919,156.132l-11.995,26.874l65.607,65.607
	l-201.197,4.513l98.701,98.7l-53.529,31.411L259.227,511.962z"/>
<path style="fill:#324A5E;" d="M229.292,239.632c-7.994,30.386-39.105,48.537-69.491,40.543s-48.537-39.105-40.543-69.491
	s4.36-28.265,34.745-20.271C184.389,198.406,237.285,209.248,229.292,239.632z"/>
<path style="fill:#243342;" d="M154.003,190.414c-14.324-3.768-21.085-6.227-25.071-4.594l46.089,96.222
	c24.94-0.314,47.616-17.115,54.27-42.408C237.285,209.248,184.387,198.408,154.003,190.414z"/>
<path style="fill:#2B3B4E;" d="M322.534,201.126c28.348-13.546,71.787-56.792,85.333-28.444s7.985,86.004-20.363,99.55
	c-28.348,13.546-24.383,14.948-37.929-13.402C336.029,230.481,294.185,214.673,322.534,201.126z"/>
<path style="fill:#1E2C3A;" d="M407.867,172.682c-5.011-10.488-14.117-11.171-25.033-7.189l-20.48,115.469
	c4.28,2.145,10.25-1.61,25.15-8.73C415.853,258.686,421.414,201.03,407.867,172.682z"/>
<path style="fill:#324A5E;" d="M320,180.517c28.812,12.531,42.01,46.046,29.479,74.859s-46.046,42.01-74.857,29.479
	c-28.812-12.531-27.27-8.618-14.739-37.429S291.188,167.986,320,180.517z"/>
<path style="fill:#243342;" d="M320,180.517c-2.479-1.077-4.879-1.658-7.211-1.855l-17.248,110.885
	c22.588,0.696,44.375-12.183,53.938-34.171C362.01,226.563,348.812,193.048,320,180.517z"/>
<path style="fill:#2B3B4E;" d="M175.094,267.645c-18.522-25.378,4.393-94.18,29.77-112.704s43.61,20.249,62.133,45.628
	c18.523,25.379,19.172,21.223-6.208,39.745C235.411,258.838,193.615,293.024,175.094,267.645z"/>
<path style="fill:#1E2C3A;" d="M266.997,200.57c-14.408-19.742-28.643-47.578-46.201-50.254l-10.219,122.261
	c17.299-7.14,36.242-22.066,50.212-32.263C286.168,221.793,285.518,225.947,266.997,200.57z"/>
<path style="fill:#D83E20;" d="M365.815,389.746H146.185c-10.574,0-19.678-7.465-21.752-17.832l-24.878-124.39h312.889
	l-24.878,124.39C385.493,382.283,376.389,389.746,365.815,389.746z"/>
<path style="fill:#C1321F;" d="M255.426,247.524v142.222h110.389c10.574,0,19.678-7.465,21.752-17.832l24.878-124.39
	L255.426,247.524L255.426,247.524z"/>
<rect x="85.333" y="224.677" style="fill:#FC6F58;" width="341.333" height="28.444"/>
<rect x="255.431" y="224.677" style="fill:#F1543F;" width="171.236" height="28.444"/>
<circle style="fill:#324A5E;" cx="174.976" cy="387.586" r="28.444"/>
<circle style="fill:#2B3B4E;" cx="341.333" cy="387.586" r="28.444"/>
</svg>