<?xml version="1.0" encoding="utf-8"?>
<svg version="1.0" width="512.000000pt" height="512.000000pt" viewBox="0 0 512.000000 512.000000" preserveAspectRatio="xMidYMid meet" xmlns="http://www.w3.org/2000/svg">
  <g transform="matrix(0.1, 0, 0, -0.1, 0, 519.944824)" fill="#000000" stroke="none">
    <path d="M2368 5109 c-238 -18 -511 -94 -733 -203 -558 -275 -952 -765 -1110 -1382 -166 -648 -11 -1329 419 -1841 66 -79 1591 -1563 1613 -1570 11 -4 1549 1481 1609 1553 122 147 212 286 295 459 207 434 255 928 135 1398 -35 136 -110 335 -172 459 -119 237 -307 475 -503 639 -347 291 -750 455 -1196 489 -155 11 -201 11 -357 -1z m281 -1109 c331 -34 605 -211 768 -495 282 -492 88 -1124 -422 -1375 -157 -77 -238 -95 -435 -95 -142 0 -177 3 -250 23 -180 49 -327 136 -460 272 -125 127 -202 264 -252 448 -32 117 -32 353 1 477 62 241 219 460 422 591 128 83 287 138 439 153 47 5 86 9 86 10 1 0 47 -4 103 -9z" style="fill: rgb(226, 48, 70);"/>
  </g>
</svg>