<?xml version="1.0" encoding="iso-8859-1"?>
<!-- Uploaded to: SVG Repo, www.svgrepo.com, Generator: SVG Repo Mixer Tools -->
<svg version="1.1" id="Layer_1" xmlns="http://www.w3.org/2000/svg" xmlns:xlink="http://www.w3.org/1999/xlink" 
	 viewBox="0 0 512 512" xml:space="preserve">
<circle style="fill:#324A5E;" cx="256" cy="256" r="256"/>
<path style="fill:#2B3B4E;" d="M437.019,437.019c42.299-42.299,66.696-95.716,73.202-150.845L311.887,87.842l-3.729,60.606
	l-64.874-65.364l-20.173,27.919l-9.023,20.589l21.411,21.166l-9.902,18.789l44.223,44.223l-42.967,32.921l55.772,55.772
	l-99.923,23.917l-17.723,4.243l-20.926,67.401L256.026,512C321.533,511.993,387.039,487,437.019,437.019z"/>
<path style="fill:#66B31B;" d="M299.084,251.823l-6.508-24.192c-7.906-29.391-38.141-46.807-67.532-38.902l-24.192,6.508
	l6.508,24.192c7.906,29.391,38.141,46.807,67.532,38.902L299.084,251.823z"/>
<path style="fill:#599B13;" d="M311.129,263.297c-0.876,0-1.762-0.224-2.576-0.691l-74.037-42.649
	c-2.477-1.426-3.327-4.587-1.901-7.063c1.426-2.474,4.586-3.325,7.063-1.901l74.037,42.649c2.477,1.426,3.327,4.587,1.901,7.063
	C314.658,262.366,312.918,263.297,311.129,263.297z"/>
<path style="fill:#79D720;" d="M311.887,259.093l-26.758-26.758c-32.511-32.511-32.511-85.223,0-117.734l26.758-26.758l26.758,26.76
	c32.511,32.511,32.511,85.223,0,117.734L311.887,259.093z"/>
<path style="fill:#66B31B;" d="M338.647,114.6l-26.758-26.758l0,0l-0.722,170.53l0.722,0.722l26.758-26.758
	C371.159,199.823,371.159,147.111,338.647,114.6z"/>
<path style="fill:#599B13;" d="M311.887,330.093c-2.857,0-5.172-2.315-5.172-5.172V153.653c0-2.857,2.315-5.172,5.172-5.172
	s5.172,2.315,5.172,5.172v171.268C317.059,327.778,314.746,330.093,311.887,330.093z"/>
<path style="fill:#538913;" d="M311.887,148.482c-0.248,0-0.484,0.04-0.722,0.072v181.465c0.238,0.034,0.476,0.072,0.722,0.072
	c2.857,0,5.172-2.315,5.172-5.172V153.653C317.059,150.797,314.746,148.482,311.887,148.482z"/>
<path style="fill:#FFD15D;" d="M228.7,172.289c-1.045,0-2.107-0.24-3.103-0.743c-3.401-1.717-4.765-5.863-3.048-9.263l14.484-28.682
	h-18.098c-2.396,0-4.618-1.243-5.873-3.282c-1.255-2.039-1.36-4.584-0.281-6.72l19.537-38.684c1.717-3.403,5.865-4.767,9.263-3.048
	c3.401,1.717,4.765,5.863,3.048,9.263l-14.486,28.682h18.099c2.396,0,4.618,1.243,5.873,3.282c1.255,2.039,1.36,4.584,0.281,6.72
	l-19.537,38.684C233.646,170.905,231.219,172.289,228.7,172.289z"/>
<path style="fill:#FFEDB5;" d="M385.05,288.104c-2.769-3.848-7.801-5.361-12.236-3.694c-0.064,0.024-0.128,0.047-0.191,0.069
	l-75.104,25.004c0.017,0.603,0.003,1.21-0.036,1.822c-0.628,9.592-8.044,17.296-17.575,18.263l-45.263,4.701
	c-2.863,0.298-5.423-1.783-5.722-4.644c-0.298-2.863,1.781-5.489,4.644-5.722l45.263-4.701c4.467-0.486,7.958-4.074,8.252-8.576
	c0.16-2.458-0.646-4.832-2.272-6.684c-1.626-1.853-3.875-2.962-6.334-3.12l-60.095-3.918c-6.749-0.438-13.45,1.052-19.375,4.315
	l-79.257,43.644l21.464,43.28l19.909-17.368c8.456-7.375,19.656-10.554,30.729-8.713L258.4,373.12
	c12.195,1.62,24.419-1.421,34.432-8.563l90.607-62.4C387.487,298.615,388.205,292.488,385.05,288.104z"/>
<g>
	<path style="fill:#FEE187;" d="M278.831,319.2c4.467-0.486,7.958-4.074,8.252-8.576c0.16-2.458-0.646-4.832-2.272-6.684
		c-1.626-1.853-3.875-2.962-6.334-3.12l-17.88-1.165v21.44L278.831,319.2z"/>
	<path style="fill:#FEE187;" d="M385.05,288.104c-2.769-3.848-7.801-5.361-12.238-3.694c-0.064,0.024-0.126,0.047-0.191,0.069
		l-75.104,25.004c0.016,0.603,0.003,1.21-0.036,1.822c-0.628,9.592-8.044,17.294-17.575,18.263l-19.309,2.007v41.787
		c11.457,0.998,22.823-2.089,32.234-8.802l90.607-62.4C387.487,298.615,388.205,292.488,385.05,288.104z"/>
</g>
<rect x="123.015" y="331.96" transform="matrix(0.8256 -0.5643 0.5643 0.8256 -181.1355 142.2468)" style="fill:#4CDBC4;" width="33.031" height="64.338"/>
</svg>