<?xml version="1.0" encoding="iso-8859-1"?>
<!-- Uploaded to: SVG Repo, www.svgrepo.com, Generator: SVG Repo Mixer Tools -->
<svg version="1.1" id="Layer_1" xmlns="http://www.w3.org/2000/svg" xmlns:xlink="http://www.w3.org/1999/xlink" 
	 viewBox="0 0 512 512" xml:space="preserve">
<circle style="fill:#324A5E;" cx="256" cy="256" r="256"/>
<path style="fill:#2B3B4E;" d="M300.525,508.133c108.556-19.039,193.552-106.47,208.958-216.233l-132.42-132.855l-217.647,115.76
	l-52.026,30.527l85.802,85.802l-5.76,3.906L300.525,508.133z"/>
<rect x="195.077" y="298.374" style="fill:#31BAFD;" width="121.863" height="90.505"/>
<g>
	<rect x="256" y="298.374" style="fill:#2B9ED8;" width="60.923" height="90.505"/>
	<path style="fill:#2B9ED8;" d="M320.264,397.56H191.735c-2.748,0-4.977-2.227-4.977-4.977v-20.215c0-2.748,2.227-4.977,4.977-4.977
		h128.529c2.748,0,4.977,2.227,4.977,4.977v20.215C325.241,395.333,323.013,397.56,320.264,397.56z"/>
</g>
<path style="fill:#2697C4;" d="M320.264,367.392H256v30.168h64.264c2.748,0,4.977-2.227,4.977-4.977v-20.215
	C325.241,369.621,323.013,367.392,320.264,367.392z"/>
<path style="fill:#84DBFF;" d="M400.103,307.055H111.897c-4.255,0-7.442-3.856-6.604-7.985l27.755-136.587
	c0.633-3.113,3.396-5.354,6.604-5.354h232.696c3.208,0,5.97,2.239,6.604,5.354l27.755,136.587
	C407.547,303.199,404.358,307.055,400.103,307.055z"/>
<path style="fill:#31BAFD;" d="M406.707,299.07l-27.755-136.587c-0.633-3.115-3.396-5.354-6.604-5.354H256v149.928h144.103
	C404.358,307.055,407.547,303.199,406.707,299.07z"/>
<path style="fill:#B5F1F4;" d="M136.071,243.062h109.158c3.91,0,7.078-3.138,7.078-7.009v-22.55c0-3.87-3.169-7.009-7.078-7.009
	H141.088c-3.322,0-6.197,2.288-6.913,5.501l-5.017,22.55C128.186,238.92,131.548,243.062,136.071,243.062z"/>
<g>
	<path style="fill:#A0D8D8;" d="M370.912,206.495H266.771c-3.91,0-7.078,3.138-7.078,7.009v22.55c0,3.87,3.169,7.009,7.078,7.009
		h109.158c4.524,0,7.885-4.143,6.913-8.516l-5.017-22.55C377.11,208.784,374.234,206.495,370.912,206.495z"/>
	<path style="fill:#A0D8D8;" d="M266.771,199.182h99.395c4.523,0,7.885-4.143,6.913-8.516l-3.593-16.151
		c-0.715-3.213-3.589-5.501-6.913-5.501h-95.803c-3.91,0-7.078,3.138-7.078,7.009v16.15
		C259.693,196.043,262.861,199.182,266.771,199.182z"/>
	<path style="fill:#A0D8D8;" d="M259.693,257.384v30.777c0,3.87,3.169,7.009,7.078,7.009H387.52c4.523,0,7.885-4.143,6.913-8.516
		l-6.847-30.777c-0.715-3.213-3.589-5.501-6.913-5.501H266.769C262.861,250.377,259.693,253.514,259.693,257.384z"/>
</g>
<g>
	<path style="fill:#B5F1F4;" d="M252.307,192.172v-16.15c0-3.87-3.169-7.009-7.078-7.009h-95.803c-3.322,0-6.197,2.288-6.913,5.501
		l-3.593,16.15c-0.972,4.374,2.389,8.516,6.913,8.516h99.395C249.139,199.182,252.307,196.043,252.307,192.172z"/>
	<path style="fill:#B5F1F4;" d="M245.229,250.377H131.325c-3.322,0-6.197,2.288-6.913,5.501l-6.847,30.777
		c-0.972,4.374,2.389,8.516,6.913,8.516h120.749c3.91,0,7.078-3.138,7.078-7.009v-30.777
		C252.307,253.514,249.139,250.377,245.229,250.377z"/>
</g>
</svg>