<?xml version="1.0" encoding="utf-8"?>
<!-- Generator: Adobe Illustrator 27.5.0, SVG Export Plug-In . SVG Version: 6.00 Build 0)  -->
<svg version="1.1" xmlns="http://www.w3.org/2000/svg" xmlns:xlink="http://www.w3.org/1999/xlink" x="0px" y="0px"
	 viewBox="0 0 500 500" style="enable-background:new 0 0 500 500;" xml:space="preserve">
<g id="Background_Simple">
	<g>
		<path style="fill:#92E3A9;" d="M411.566,305.298c-1.484,2.531-3.001,4.997-4.55,7.42c-0.971,1.517-1.942,3.011-2.935,4.484
			c-1.658,2.455-3.339,4.845-5.063,7.191c-0.055,0.076-0.109,0.142-0.164,0.218c-0.775,1.058-1.571,2.106-2.357,3.142
			c-0.709,0.927-1.418,1.833-2.138,2.739c-0.306,0.382-0.611,0.764-0.917,1.135c-0.12,0.164-0.251,0.316-0.382,0.48
			c-0.589,0.742-1.189,1.473-1.8,2.193c-0.807,0.971-1.615,1.92-2.433,2.87c-0.742,0.851-1.484,1.702-2.237,2.542
			c-0.393,0.436-0.775,0.862-1.168,1.288c-0.764,0.851-1.538,1.68-2.324,2.51c-0.895,0.96-1.8,1.898-2.706,2.826
			c-0.033,0.022-0.055,0.055-0.076,0.076c-0.873,0.884-1.757,1.768-2.641,2.629c-1.309,1.277-2.619,2.531-3.95,3.764
			c-1.647,1.528-3.317,3.022-4.997,4.474c-0.044,0.033-0.087,0.076-0.131,0.12c-1.942,1.669-3.895,3.284-5.881,4.855
			c-3.044,2.422-6.132,4.724-9.274,6.918c-1.048,0.731-2.095,1.451-3.153,2.16c-2.073,1.396-4.168,2.739-6.285,4.037
			c-0.065,0.033-0.131,0.076-0.196,0.12c-1.026,0.622-2.051,1.244-3.088,1.855c-0.066,0.033-0.142,0.065-0.207,0.109
			c-2.117,1.244-4.255,2.444-6.416,3.59c-0.764,0.404-1.517,0.807-2.28,1.2c-0.447,0.229-0.895,0.458-1.331,0.676
			c-1.015,0.524-2.029,1.026-3.055,1.517c-2.237,1.091-4.484,2.128-6.754,3.121c-1.135,0.491-2.28,0.982-3.415,1.451
			c-1.146,0.48-2.28,0.938-3.437,1.397c-1.146,0.447-2.291,0.884-3.448,1.32c-1.058,0.393-2.128,0.775-3.197,1.157
			c-0.382,0.142-0.775,0.273-1.157,0.404c-0.862,0.306-1.735,0.589-2.608,0.884c-1.168,0.382-2.335,0.764-3.502,1.124
			c-0.022,0.011-0.055,0.022-0.076,0.022c-3.317,1.037-6.645,1.975-10.005,2.826c-3.535,0.916-7.092,1.713-10.66,2.422v0.011
			c-50.3,10.093-103.579,1.855-147.932-18.647c-1.146-0.535-2.291-1.08-3.415-1.648c-0.567-0.284-1.135-0.567-1.691-0.862
			c-1.451-0.742-2.891-1.528-4.31-2.346c-0.655-0.36-1.298-0.742-1.942-1.124c-0.513-0.295-1.015-0.6-1.517-0.917
			c-0.426-0.251-0.862-0.524-1.287-0.796c-0.48-0.295-0.96-0.6-1.44-0.917c-3.044-1.964-6.012-4.07-8.882-6.296
			c-0.556-0.426-1.102-0.851-1.637-1.288c-0.371-0.295-0.742-0.6-1.113-0.906c-0.469-0.382-0.927-0.764-1.397-1.156
			c-0.982-0.829-1.953-1.669-2.913-2.542c-0.295-0.251-0.567-0.502-0.851-0.775c-0.426-0.371-0.84-0.753-1.255-1.146
			c-1.757-1.648-3.47-3.339-5.117-5.084c-0.295-0.306-0.589-0.622-0.884-0.938c-2.215-2.368-4.332-4.823-6.339-7.343
			c-0.535-0.666-1.048-1.331-1.56-2.008c-1.626-2.106-3.164-4.277-4.637-6.481c-0.415-0.633-0.829-1.266-1.233-1.898
			c-1.397-2.182-2.706-4.397-3.961-6.656c-0.393-0.72-0.786-1.451-1.167-2.182c-0.338-0.655-0.676-1.309-1.004-1.964
			c-1.189-2.368-2.291-4.768-3.306-7.212c-0.262-0.633-0.524-1.277-0.775-1.92c-1.44-3.644-2.695-7.365-3.743-11.162
			c-0.164-0.578-0.316-1.157-0.469-1.735c-0.011-0.055-0.022-0.109-0.044-0.164c-0.109-0.447-0.229-0.884-0.327-1.331
			c-0.164-0.666-0.327-1.331-0.469-1.997c-0.164-0.731-0.327-1.462-0.469-2.182c-0.185-0.906-0.36-1.822-0.513-2.739
			c-0.142-0.785-0.273-1.571-0.393-2.368c-0.131-0.818-0.24-1.637-0.349-2.455c-2.739-21.058,1.451-44.648,12.799-63.219
			c1.571-2.575,3.273-5.041,5.117-7.398c2.237-2.859,4.67-5.543,7.31-8.02c0.109-0.12,0.229-0.229,0.349-0.327
			c4.321-4.015,9.187-7.474,14.588-10.234c1.255-0.633,2.488-1.255,3.699-1.866c2.379-1.178,4.681-2.302,6.939-3.372
			c0.698-0.327,1.386-0.655,2.073-0.96c0.109-0.055,0.207-0.109,0.306-0.153c1.571-0.731,3.11-1.429,4.626-2.106
			c2.848-1.277,5.597-2.466,8.26-3.579c0.677-0.284,1.342-0.557,2.008-0.829c2.008-0.829,3.972-1.626,5.903-2.379
			c1.462-0.578,2.902-1.135,4.332-1.669c0.164-0.065,0.338-0.131,0.502-0.196c1.277-0.48,2.542-0.949,3.786-1.408
			c4.932-1.833,9.645-3.492,14.228-5.106c24.484-8.642,45.619-16.159,79.181-41.549c30.693-23.208,66.427-42.891,106.143-39.52
			c50.18,4.255,93.431,33.923,98.385,86.285C445.172,221.894,431.729,270.896,411.566,305.298z"/>
		<path style="opacity:0.7;fill:#FFFFFF;" d="M411.566,305.298c-1.484,2.531-3.001,4.997-4.55,7.42
			c-0.971,1.517-1.942,3.011-2.935,4.484c-1.658,2.455-3.339,4.845-5.063,7.191c-0.055,0.076-0.109,0.142-0.164,0.218
			c-0.775,1.058-1.571,2.106-2.357,3.142c-0.709,0.927-1.418,1.833-2.138,2.739c-0.306,0.382-0.611,0.764-0.917,1.135
			c-0.12,0.164-0.251,0.316-0.382,0.48c-0.589,0.742-1.189,1.473-1.8,2.193c-0.807,0.971-1.615,1.92-2.433,2.87
			c-0.742,0.851-1.484,1.702-2.237,2.542c-0.393,0.436-0.775,0.862-1.168,1.288c-0.764,0.851-1.538,1.68-2.324,2.51
			c-0.895,0.96-1.8,1.898-2.706,2.826c-0.033,0.022-0.055,0.055-0.076,0.076c-0.873,0.884-1.757,1.768-2.641,2.629
			c-1.309,1.277-2.619,2.531-3.95,3.764c-1.647,1.528-3.317,3.022-4.997,4.474c-0.044,0.033-0.087,0.076-0.131,0.12
			c-1.942,1.659-3.906,3.284-5.881,4.855c-3.044,2.422-6.132,4.724-9.274,6.918c-1.048,0.731-2.095,1.451-3.153,2.16
			c-2.073,1.386-4.168,2.728-6.285,4.037c-0.065,0.033-0.131,0.076-0.196,0.12c-1.026,0.622-2.051,1.244-3.088,1.855
			c-0.066,0.033-0.142,0.065-0.207,0.109c-2.117,1.244-4.266,2.444-6.416,3.59c-0.764,0.404-1.517,0.807-2.28,1.2
			c-0.447,0.229-0.895,0.458-1.331,0.676c-1.015,0.524-2.029,1.026-3.055,1.517c-2.237,1.091-4.495,2.128-6.754,3.121
			c-1.135,0.491-2.28,0.982-3.415,1.451c-1.146,0.48-2.28,0.938-3.437,1.397c-1.146,0.447-2.291,0.884-3.448,1.32
			c-1.058,0.393-2.128,0.775-3.197,1.157c-0.382,0.142-0.775,0.273-1.157,0.404c-0.862,0.306-1.735,0.589-2.608,0.884
			c-1.168,0.382-2.335,0.764-3.502,1.124c-0.022,0.011-0.055,0.022-0.076,0.022c-3.317,1.037-6.645,1.975-10.005,2.826
			c-3.535,0.916-7.092,1.713-10.66,2.422v0.011c-50.3,10.093-103.579,1.855-147.932-18.647c-1.146-0.535-2.291-1.08-3.415-1.648
			c-0.567-0.284-1.135-0.567-1.691-0.862c-1.451-0.742-2.891-1.528-4.31-2.346c-0.655-0.36-1.298-0.742-1.942-1.124
			c-0.513-0.295-1.015-0.6-1.517-0.917c-0.426-0.251-0.862-0.524-1.287-0.796c-0.48-0.295-0.96-0.6-1.44-0.917
			c-3.044-1.964-6.012-4.07-8.882-6.296c-0.556-0.426-1.102-0.851-1.637-1.288c-0.371-0.295-0.742-0.6-1.113-0.906
			c-0.469-0.382-0.927-0.764-1.397-1.156c-0.982-0.829-1.953-1.669-2.913-2.542c-0.295-0.251-0.567-0.502-0.851-0.775
			c-0.426-0.371-0.84-0.753-1.255-1.146c-1.757-1.648-3.47-3.339-5.117-5.084c-0.295-0.306-0.589-0.622-0.884-0.938
			c-2.215-2.368-4.332-4.823-6.339-7.343c-0.535-0.666-1.048-1.331-1.56-2.008c-1.626-2.106-3.164-4.277-4.637-6.481
			c-0.415-0.633-0.829-1.266-1.233-1.898c-1.397-2.182-2.706-4.397-3.961-6.656c-0.393-0.72-0.786-1.451-1.167-2.182
			c-0.338-0.655-0.676-1.309-1.004-1.964c-1.189-2.368-2.291-4.768-3.306-7.212c-0.262-0.633-0.524-1.277-0.775-1.92
			c-1.44-3.644-2.695-7.365-3.743-11.162c-0.164-0.578-0.316-1.157-0.469-1.735c-0.011-0.055-0.022-0.109-0.044-0.164
			c-0.109-0.447-0.229-0.884-0.327-1.331c-0.164-0.666-0.327-1.331-0.469-1.997c-0.164-0.731-0.327-1.462-0.469-2.182
			c-0.185-0.906-0.36-1.822-0.513-2.739c-0.142-0.785-0.273-1.571-0.393-2.368c-0.131-0.818-0.24-1.637-0.349-2.455
			c-2.739-21.058,1.451-44.648,12.799-63.219c1.571-2.575,3.273-5.041,5.117-7.398c2.237-2.859,4.67-5.543,7.31-8.02
			c0.109-0.12,0.229-0.229,0.349-0.327c4.321-4.015,9.187-7.474,14.588-10.234c1.255-0.633,2.488-1.255,3.699-1.866
			c2.379-1.178,4.681-2.302,6.939-3.372c0.698-0.327,1.386-0.655,2.073-0.96c0.109-0.055,0.207-0.109,0.306-0.153
			c1.571-0.731,3.11-1.429,4.626-2.106c2.848-1.277,5.597-2.466,8.26-3.579c0.677-0.284,1.342-0.557,2.008-0.829
			c2.008-0.829,3.972-1.626,5.903-2.379c1.462-0.578,2.902-1.135,4.332-1.669c0.164-0.065,0.338-0.131,0.502-0.196
			c1.277-0.48,2.542-0.949,3.786-1.408c4.932-1.833,9.645-3.492,14.228-5.106c24.484-8.642,45.619-16.159,79.181-41.549
			c30.693-23.208,66.427-42.891,106.143-39.52c50.18,4.255,93.431,33.923,98.385,86.285
			C445.172,221.894,431.729,270.896,411.566,305.298z"/>
	</g>
	<path style="fill:#92E3A9;" d="M399.018,324.388c-26.848,36.522-61.636,59.26-99.104,70.904c-0.023,0.011-0.056,0.022-0.079,0.022
		c-3.311,1.036-6.644,1.971-10,2.827c-3.536,0.912-7.095,1.712-10.665,2.421v0.011c-50.295,10.09-103.574,1.858-147.935-18.65
		c-24.866-11.498-45.914-31.173-58.55-55.307c12.839-9.178,36.803-17.884,77.92-6.757c70.521,19.077,124.578,64.136,171.517,31.285
		C355.344,327.902,379.693,319.816,399.018,324.388z"/>
</g>
<g id="Shadow">
	<g>
		<ellipse style="fill:#92E3A9;" cx="250" cy="457.393" rx="133.721" ry="15.525"/>
		<ellipse style="opacity:0.5;fill:#FFFFFF;" cx="250" cy="457.393" rx="133.721" ry="15.525"/>
	</g>
</g>
<g id="Wind_Turbine_2">
	<g>
		<path style="fill:#FFFFFF;" d="M367.844,315.148c-0.021-0.021-0.041-0.041-0.062-0.072c-0.082-0.103-0.165-0.207-0.227-0.31
			c-0.155-0.186-0.289-0.361-0.423-0.526c0,0,0-0.01-0.01-0.01l-4.428-4.49c-0.031-0.031-0.072-0.062-0.103-0.093l-14.894-15.08
			c-0.052-0.052-0.093-0.103-0.134-0.155c-0.764-0.898-6.337-7.524-8.732-11.23c-0.031-0.041-0.052-0.083-0.072-0.124
			c-0.237-0.361-0.444-0.702-0.599-0.991c-0.289-0.537-0.712-1.135-1.239-1.765c-0.041-0.041-0.082-0.083-0.103-0.124
			c-2.353-2.756-6.637-6.162-10.549-8.298c-0.062-0.031-0.124-0.062-0.186-0.093c-0.846-0.454-1.662-0.846-2.446-1.166
			c-0.052-0.021-0.114-0.052-0.165-0.072c0,0,2.446-1.166,2.178-4.16c-0.01-0.083-0.021-0.165-0.041-0.248
			c0-0.062-0.01-0.124-0.031-0.186c-0.01-0.052-0.021-0.103-0.031-0.144c-0.63-2.508-3.798-5.914-6.626-7.865
			c-0.237-0.155-0.475-0.31-0.712-0.464c-0.217-0.145-0.423-0.268-0.63-0.372c-0.093-0.052-0.175-0.103-0.268-0.155h-0.01v-0.01
			l-0.784-7.535h-1.363l-0.402-4.645c0,0,0.031-1.827,0.103-4.748c0.01-0.155,0.01-0.31,0.021-0.465
			c0.175-7.008,0.588-19.631,1.331-28.652v-0.031c1.073-13.139,2.642-27.744,3.231-35.753c0.01-0.083,0.01-0.165,0.021-0.248
			c0-0.052,0-0.093,0.01-0.145c0.031-0.454,0.072-0.908,0.103-1.352c0.041-0.402,0.072-0.805,0.103-1.197
			c0.506-5.739,1.125-11.013,0.227-13.315c-0.175-0.475-0.423-0.826-0.753-1.032c-1.817-1.135-4.665,6.172-6.812,13.325v0.01
			c-0.413,1.393-0.805,2.797-1.156,4.118c-0.052,0.175-0.103,0.351-0.155,0.537c-1.559,5.904-5.295,20.447-7.37,31.976
			c-0.97,5.336-1.569,10.032-1.435,12.922c-0.01,0.01-0.01,0.031,0,0.052c0.454,9.238,1.094,10.033,3.354,17.02
			c2.147,6.637,2.591,10.827,2.632,11.23v0.031l-1.073,0.196l-0.867,0.165l-0.691,4.387c0,0-2.415-0.113-4.552,0.919
			c-0.764,0.351-1.497,0.867-2.064,1.569l-0.041-0.01c-0.124-0.031-0.475-0.113-1.032-0.227c0,0-0.01-0.01-0.021,0
			c-1.373-0.268-3.953-0.671-7.277-0.764c-2.405-0.052-5.192,0.052-8.185,0.506c-0.031,0-0.062,0.01-0.093,0.01
			c-8.206,1.259-15.389,3.912-17.99,5.491c-0.093,0.052-0.176,0.103-0.258,0.155c0,0-0.01,0-0.01,0.01
			c-0.093,0.052-0.186,0.113-0.268,0.196c-0.041,0.021-0.093,0.062-0.134,0.103c-0.031,0.021-0.062,0.041-0.093,0.072
			c-0.031,0.031-0.072,0.062-0.103,0.103c-0.041,0.041-0.072,0.072-0.103,0.114c-0.826,0.991-1.507,3.303-1.755,5.697v0.041
			c-0.155,1.528-0.134,3.086,0.155,4.345c0.052,0.258,0.124,0.485,0.196,0.681c0.01,0.031,0.01,0.041,0.01,0.041l9.857,0.578
			l4.51,0.268l6.079,0.351v0.01l-0.898,20.374c0,0-2.508,1.827-5.501,4.407c-2.229,1.94-4.717,4.283-6.637,6.606
			c-0.175,0.206-0.33,0.413-0.495,0.63c-0.206,0.279-0.413,0.557-0.619,0.836c-0.062,0.072-0.124,0.144-0.165,0.227
			c-2.219,3.138-4.985,8.092-7.421,12.592c-2.467,4.562-4.603,8.649-5.501,9.909c0,0-0.01,0.01-0.01,0.021
			c-1.063,1.486-2.993,5.326-4.954,8.835c-1.59,2.859-3.2,5.501-4.356,6.492c-0.01,0.01-0.031,0.021-0.041,0.031
			c-2.57,2.198-4.149,4.572-2.838,5.181c1.321,0.599,3.437,0.248,7.359-2.972c0.041-0.021,0.083-0.062,0.124-0.093
			c3.881-3.2,13.779-16.359,14.388-17.175c0.712-0.867,1.424-1.744,2.157-2.622c0.289-0.361,0.588-0.733,0.898-1.094
			c1.765-2.137,4.015-4.861,5.976-7.246c0.495-0.619,1.012-1.228,1.528-1.848c0.289-0.361,0.588-0.723,0.898-1.084
			c0.65-0.795,1.311-1.59,1.971-2.374c2.023-2.333,2.477-1.961,2.477-1.961l-0.155,3.643l-0.103,2.353v0.01l-3.664,132.75
			c3.272-0.65,6.533,0.836,9.774,0c3.076-0.784,9.131,0.95,12.165,0c0.021,0,0.052,0.01,0.072,0l-4.909-155.158v-0.237
			c0.052-0.052,0.093-0.093,0.134-0.145l2.178-2.395l11.199-12.324c0.031-0.041,0.062-0.072,0.103-0.103c0,0,0.206,0.155,0.516,0.31
			c0.506,0.258,1.3,0.516,1.951,0.103c1.043-0.681,3.22-5.439,3.22-5.439l2.89-0.743c0,0,0.021-0.01,0.072-0.021
			c0.01,0,0.021,0,0.031-0.01l1.414-0.361l1.208,1.135l7.462,6.926c0.103,0.093,0.206,0.196,0.31,0.289l40.77,37.89
			c0.021,0.021,0.041,0.031,0.062,0.052c0.248,0.289,2.57,2.807,4.067,2.064C372.736,321.702,369.392,317.13,367.844,315.148z
			 M295.47,283.007c-0.237,0.268-0.444,0.516-0.64,0.733c-0.031,0.031-0.062,0.062-0.083,0.093
			c-0.413,0.465-0.702,0.784-0.795,0.898c-0.041,0.031-0.052,0.052-0.052,0.052v-9.723h0.052l0.877,0.01l5.357,0.031l0.289,1.187
			l0.041,0.176c-0.196,0.299-0.392,0.588-0.588,0.877C298.546,279.353,296.739,281.531,295.47,283.007z"/>
		<path style="fill:#92E3A9;" d="M320.183,272.701l-1.342,2.398l-1.215-1.129l-1.443,0.368c-0.044,0.013-0.07,0.019-0.07,0.019
			l-2.893,0.742c0,0-2.171,4.758-3.216,5.437c-0.652,0.419-1.45,0.159-1.956-0.095l0.677-1.776c0,0-1.532-4.745-6.767-4.396
			l-0.456,2.874c0,0-2.045-3.35-1.956-3.819c0.089-0.469-2.823-3.546-3.273-8.057c-0.449-4.51,1.773-13.328,13.307-10.937
			c0,0-3.727,0.364-5.241,6.524C302.826,267.02,311.953,271.375,320.183,272.701z"/>
		<polygon style="fill:#92E3A9;" points="280.341,317.886 291.322,306.452 290.27,299.385 281.033,310.781 		"/>
		<path style="fill:#92E3A9;" d="M288.175,265.888v-1.478l6.293,6.211l-0.513,4.111v10.347c-1.633,1.643-4.413,3.882-5.717,4.904
			C288.378,275.828,288.384,266.357,288.175,265.888z"/>
		<path style="fill:#92E3A9;" d="M298.831,450.489c-0.021,0.01-0.052,0-0.072,0c-3.034,0.95-9.09-0.784-12.165,0
			c0.33-18.909,0.764-95.81,1.115-119.415c0.103-6.802,0.196-13.459,0.279-19.745c0.01-0.485,0.021-0.96,0.021-1.435
			c0.041-2.694,0.072-5.316,0.103-7.844v-0.072l0.784-0.898l1.393-1.589l3.633-4.16l0.01-0.01L298.831,450.489z"/>
		<path style="fill:#92E3A9;" d="M371.507,322.322c-1.583,0.787-4.09-2.081-4.09-2.081l-49.791-46.272l-1.443,0.368
			c0.551-0.152,4.109-1.193,7.458-3.717c5.356,2.157,12.661,8.006,14.523,11.451c1.88,3.489,9.483,12.44,9.483,12.44l19.48,19.723
			C367.126,314.234,373.089,321.529,371.507,322.322z"/>
		<path style="fill:#92E3A9;" d="M296.56,261.709c0,0-29.358-1.732-32.498-0.269c-3.14,1.463-3.055,8.8-2.102,11.413l37.552,2.206
			l0.033-1.739l0.088-0.469C299.632,272.851,295.761,270.142,296.56,261.709z"/>
		<path style="fill:#92E3A9;" d="M305.577,274.731c0,0-5.418,11.731-12.565,16.801c-7.147,5.07-21.151,14.724-33.207,29.208
			c0,0,6.253-13.77,13.158-19.491c6.905-5.721,16.201-11.205,19.032-14.163c2.832-2.958,9.961-12.817,9.961-12.817L305.577,274.731z
			"/>
		<path style="fill:#92E3A9;" d="M312.276,171.479c-4.21,21.188-5.356,50.732-2.646,61.123c2.71,10.385,1.811,16.805,1.811,16.805
			h-4.305v-0.159l1.07-0.197c0,0-0.367-4.276-2.627-11.26c-2.266-6.991-2.899-7.784-3.362-17.027
			c-0.462-9.237,6.799-37.352,8.945-45.428c0.355-1.339,0.753-2.753,1.178-4.174C312.321,171.263,312.295,171.371,312.276,171.479z"
			/>
		<path style="fill:none;stroke:#263238;stroke-linecap:round;stroke-linejoin:round;stroke-miterlimit:10;" d="M305.577,253.793
			c-3.45,0.131-6.106,0.932-7.751,4.211c-2.416,4.816-2.168,11.244,1.806,14.846"/>
		<path style="fill:none;stroke:#263238;stroke-linecap:round;stroke-linejoin:round;stroke-miterlimit:10;" d="M313.218,275.098
			c6.45-1.276,12.19-4.831,12.422-8.089c0.226-3.165-3.59-7.497-8.827-10.328"/>
		<path style="fill:none;stroke:#263238;stroke-linecap:round;stroke-linejoin:round;stroke-miterlimit:10;" d="M317.306,256.957
			l-0.787-7.548h-10.257l-0.685,4.385c0,0,1.956-0.065,5.864,0.994"/>
		<path style="fill:none;stroke:#263238;stroke-linecap:round;stroke-linejoin:round;stroke-miterlimit:10;" d="M308.168,249.408
			c0,0,0.9-4.973-3.961-14.536c-4.862-9.563-0.049-32.117,4.027-48.356c4.076-16.239,7.497-27.967,10.918-28.689
			c3.421-0.722-2.881,41.319-3.241,59.543c-0.36,18.224-1.649,22.788-0.969,32.038"/>
		<path style="fill:none;stroke:#263238;stroke-linecap:round;stroke-linejoin:round;stroke-miterlimit:10;" d="M308.727,278.662
			c0-0.001-2.662-5.792-6.772-4.393c-3.476,5.371-7.603,11.487-12.88,15.208c-5.547,3.912-11.368,6.766-16.113,11.771
			c-4.645,4.9-8.321,10.65-11.569,16.546c-5.578,10.126-10.189,20.938-17.616,29.792c-0.628,0.749-1.309,1.776-0.809,2.615
			c0.569,0.954,2.02,0.635,3,0.113c6.087-3.243,9.815-9.338,14.075-14.516c3.378-4.105,6.738-8.226,10.121-12.327
			c7.764-9.411,15.564-18.795,23.496-28.065c2.999-3.505,6.014-6.999,9.096-10.431C303.209,284.472,308.871,278.974,308.727,278.662
			z"/>
		<path style="fill:none;stroke:#263238;stroke-linecap:round;stroke-linejoin:round;stroke-miterlimit:10;" d="M300.749,276.117
			c0,0-1.157-1.909-1.205-2.797c-0.048-0.889,1.957-3.736,1.957-3.736"/>
		<path style="fill:none;stroke:#263238;stroke-linecap:round;stroke-linejoin:round;stroke-miterlimit:10;" d="M307.533,280.125
			c0,0,1.976,0.92,2.726,0c0.75-0.92,3.266-5.59,3.266-5.59s-3.409-4.39-5.992-4.95"/>
		<path style="fill:none;stroke:#263238;stroke-linecap:round;stroke-linejoin:round;stroke-miterlimit:10;" d="M317.855,273.878
			c9.964,9.604,50.076,48.444,52.637,48.444c2.935,0-1.213-5.34-3.365-8.085c-2.152-2.745-22.699-20.981-28.373-31.177
			c-3.618-6.501-11.006-10.691-15.286-12.511"/>
		<path style="fill:none;stroke:#263238;stroke-linecap:round;stroke-linejoin:round;stroke-miterlimit:10;" d="M300.188,275.098
			l-8.569-0.501l-4.558-0.273l-10.737-0.628l-4.508-0.266l-9.857-0.577c0,0-1.684-9.027,2.102-11.413
			c2.558-1.618,10.307-3.87,16.232-5.202c2.842-0.641,5.267-1.072,6.495-1.11c1.045-0.032,2.475,0.044,4.007,0.178
			c1.899,0.165,3.944,0.412,5.584,0.628c0.76,0.095,2.057,0.117,2.583,0.193"/>
		
			<line style="fill:none;stroke:#263238;stroke-linecap:round;stroke-linejoin:round;stroke-miterlimit:10;" x1="281.504" y1="294.435" x2="282.398" y2="274.052"/>
		<polyline style="fill:none;stroke:#263238;stroke-linecap:round;stroke-linejoin:round;stroke-miterlimit:10;" points="
			280.793,310.699 280.597,315.282 280.586,315.375 280.483,317.728 280.483,317.739 276.819,450.489 276.819,450.489 		"/>
		<path style="fill:none;stroke:#263238;stroke-linecap:round;stroke-linejoin:round;stroke-miterlimit:10;" d="M298.759,450.489
			c-0.392-18.692-3.898-97.657-4.29-120.044c-0.124-7.039-0.237-13.82-0.341-20.075c-0.083-5.481-0.155-10.559-0.206-15.038
			c0-0.083,0-0.155,0-0.227v-0.01"/>
		<path style="fill:none;stroke:#263238;stroke-linecap:round;stroke-linejoin:round;stroke-miterlimit:10;" d="M293.957,274.731
			c-0.147-0.009-0.124,3.656-0.077,10.458"/>
		<path style="fill:#263238;" d="M290.796,255.306c-2.482,0.793-12.136,3.978-13.181,5.735c-1.45,2.449-1.386,9.636-1.292,12.656
			l-4.507-0.267c-0.089-3.679-0.044-10.677,1.437-13.151c1.209-1.44,4.147-2.886,7.04-4.041c2.842-0.641,5.267-1.072,6.495-1.11
			C287.833,255.097,289.264,255.173,290.796,255.306z"/>
		<path style="fill:#263238;" d="M298.963,256.289c0,0-5.799,2.652-6.85,5.468c-0.88,2.347-0.614,10.239-0.494,12.84l-4.558-0.273
			c0.013-3.286,0.095-11.076,0.557-13.1c0.582-2.582,8.762-5.291,8.762-5.291l1.95,0.266L298.963,256.289z"/>
		<path style="fill:none;stroke:#263238;stroke-linecap:round;stroke-linejoin:round;stroke-miterlimit:10;" d="M294.133,310.368
			c-1.431,0.327-4.352,0.896-8.063,1.097v19.462c0,0,4.42,0.648,8.4-0.477"/>
		<path style="fill:#263238;" d="M282.398,274.052c0,0,4.248,5.269,11.559,6.178l-0.059-5.714L282.398,274.052z"/>
		<g>
			<path style="opacity:0.1;" d="M293.922,295.331l-3.633,4.159l-0.002,0.003l-0.016-0.108l-1.362,1.68l-0.013,0.015l-0.784,0.898
				v0.071l-7.078,8.732l-0.691,7.106l7.666-7.983c0,0.472-0.01,0.944-0.021,1.426c-0.083,6.286-0.176,12.943-0.279,19.745
				c-0.351,23.605-0.785,100.506-1.115,119.415c3.076-0.784,9.131,0.95,12.165,0c0.021,0,0.052,0.01,0.072,0l-4.899-155.168
				L293.922,295.331z"/>
			<path style="opacity:0.1;" d="M367.126,314.234l-19.48-19.723c0,0-7.603-8.951-9.483-12.44
				c-1.861-3.445-9.167-9.294-14.523-11.451c-1.187,0.895-2.398,1.6-3.495,2.149l0.038-0.068
				c-8.23-1.326-17.357-5.681-15.844-11.847c1.513-6.16,5.24-6.524,5.24-6.524c-8.912-1.848-12.262,2.996-13.119,7.374
				c-1.823-0.106-29.363-1.677-32.399-0.263c-3.14,1.463-3.055,8.8-2.102,11.412l26.379,1.549c-0.003,4.045-0.038,9.358-0.1,15.579
				c1.055-0.826,3.069-2.447,4.667-3.908c-0.336,0.39-0.643,0.733-0.911,1.013c-2.832,2.958-12.128,8.442-19.032,14.163
				c-6.905,5.721-13.158,19.491-13.158,19.491c12.055-14.484,26.06-24.139,33.207-29.208c6.594-4.677,11.713-15.018,12.466-16.591
				c2.434,1.24,3.247,3.724,3.247,3.724l-0.677,1.776c0.507,0.254,1.304,0.514,1.956,0.095c1.045-0.679,3.216-5.437,3.216-5.437
				l2.893-0.742c0,0,0.025-0.006,0.07-0.019l1.443-0.368l49.791,46.272c0,0,2.507,2.867,4.09,2.081
				C373.089,321.529,367.126,314.234,367.126,314.234z M298.906,272.138c-0.547-0.64-1.284-1.756-1.81-3.493
				C297.665,270.129,298.391,271.323,298.906,272.138z M293.955,284.818v-10.085l5.556,0.326l0.033-1.739l0-0.002
				c0,0.001,0.001,0.003,0.001,0.005c-0.053,0.279,0.645,1.569,1.222,2.574C299.155,278.092,296.216,282.045,293.955,284.818z
				 M301.957,274.27l0-0.002c1.081-0.072,1.995,0.08,2.78,0.356L301.957,274.27z"/>
			<path style="opacity:0.1;" d="M305.578,237.791c2.26,6.985,2.627,11.26,2.627,11.26l-1.07,0.197v0.159h4.305
				c0,0,0.899-6.42-1.811-16.805c-2.71-10.391-1.564-39.934,2.646-61.123c0.019-0.108,0.044-0.216,0.063-0.317
				c-0.424,1.421-0.823,2.836-1.177,4.174c-2.146,8.076-9.408,36.192-8.945,45.428C302.679,230.007,303.312,230.8,305.578,237.791z"
				/>
		</g>
	</g>
</g>
<g id="Wind_Turbine_1">
	<g>
		<polygon style="fill:none;" points="218.467,238.843 222.1,234.56 218.462,238.557 		"/>
		<path style="fill:#FFFFFF;" d="M319.112,237.534l-13.062-10.653c0,0-19.432-19.568-22.498-25.245
			c-3.035-5.604-7.909-10.116-16.641-13.625c-0.093-0.041-0.186-0.083-0.279-0.113c0,0,3.994-1.899,3.551-6.771
			c-0.433-4.872-8.216-12.644-13.604-15.348l-1.28-12.283h-2.219l-0.661-7.545c0,0,0.609-33.792,2.374-55.158
			c1.755-21.376,3.344-32.11,4.304-45.136c0.949-13.036,2.693-10.454-0.858-12.663c-2.962-1.837-10.639,19.408-11.217,21.586
			c-3.499,13.139-12.973,39.368-12.971,54.415c0.002,12.841-1.912,17.731,3.411,25.602c6.693,9.895,4.283,18.321,4.283,18.321
			l-1.744,0.32l-1.424,0.258l-0.64,4.056l-0.475,3.086c0,0-7.235-0.33-10.786,4.056c0,0-11.87-3.096-27.001-0.815
			c-15.142,2.281-28.177,7.514-30.727,9.826c-2.549,2.312-4.479,12.633-2.601,17.939l33.328,1.951l-0.007,0.163l18.751,1.547v-0.068
			l1.517,0.01l8.742,0.052l0.211,0.87l0.984,0.081l-0.984-0.081l1.926,2.073c-2.333,3.633-6.642,7.603-9.016,10.359
			c-1.517,1.744-3.381,2.448-3.381,2.448v-0.162c-3.003,3.106-8.082,8.091-12.103,10.668c-3.108,1.991-6.994,4.598-10.064,6.679
			c-3.956,3.044-10.102,9.97-15.669,19.598c-5.819,10.064-16.355,27.228-21.956,34.196c-2.539,7.215,11.223-2.526,11.223-2.526
			s19.641-22.89,23.419-27.421c1.641-1.969,23.706-26.3,23.706-26.3l11.087-11.993l11.31-11.33c0,0,1.61,1.273,2.116,1.531
			c0.826,0.413,2.126,0.836,3.189,0.155c1.703-1.104,5.243-8.846,5.243-8.846l4.717-1.208c0,0,0.041-0.01,0.114-0.031l3.064-0.794
			l1.462,1.692l63.927,52.434l2.444,0.106l-1.051-3.172L319.112,237.534z"/>
		<polygon style="fill:#FFFFFF;" points="207.181,236.923 205.197,282.237 202.101,352.712 198.85,426.562 232.466,426.562 
			228.063,213.787 		"/>
		<path style="fill:none;" d="M218.421,221.774c0,0,1.042-1.135,2.56-2.88c0,0-1.008,1.113-2.56,2.718V221.774z"/>
		<path style="fill:none;" d="M220.98,218.894c2.374-2.756,5.904-7.019,8.236-10.652l-0.326-1.349l-0.211-0.87l-8.742-0.052
			l-1.517-0.01v0.068v15.582C219.973,220.007,220.98,218.894,220.98,218.894z"/>
		<path style="fill:#FFFFFF;" d="M228.059,211.466v-15.582l-18.751-1.547l-1.458,33c0,0-0.741,0.54-1.958,1.476
			c3.069-2.081,6.956-4.688,10.064-6.679C219.977,219.557,225.056,214.572,228.059,211.466z"/>
		<polygon style="fill:none;" points="228.68,206.023 219.938,205.972 218.421,205.962 218.421,206.03 228.891,206.894 		"/>
		<path style="fill:none;" d="M220.98,218.894c2.374-2.756,5.904-7.019,8.236-10.652l-0.326-1.349l-10.47-0.864v15.744
			C218.421,221.774,219.463,220.639,220.98,218.894z"/>
		<path style="fill:#92E3A9;" d="M261.275,191.396l-2.134,1.229l-2.036,0.835l-2.353,0.599c-0.072,0.021-0.114,0.031-0.114,0.031
			l-4.717,1.208c0,0-3.54,7.741-5.243,8.846c-1.063,0.681-4.665-0.521-5.491-0.933l3.123-3.838c0,0-0.872-5.857-8.612-5.167
			l-2.882,4.416c0,0-3.334-5.45-3.189-6.214c0.144-0.764-4.603-5.77-5.336-13.108c-0.733-7.339,2.89-21.685,21.696-17.794
			c0,0-6.077,0.593-8.544,10.615C232.976,182.152,247.857,189.239,261.275,191.396z"/>
		<polygon style="fill:#92E3A9;" points="206.318,248.903 224.22,230.3 222.652,219.782 207.445,237.342 		"/>
		<path style="fill:#92E3A9;" d="M219.09,180.311v-2.405l10.26,10.105l-0.836,6.688v16.834c-2.663,2.673-7.194,6.317-9.32,7.978
			C219.421,196.484,219.431,181.074,219.09,180.311z"/>
		<path style="fill:#92E3A9;" d="M232.467,450.489h-16.731c0.423-23.058,4.07-159.52,4.917-228.715l7.363-7.057L232.467,450.489z"/>
		<path style="fill:#92E3A9;" d="M324.984,247.809c-2.58,1.28-66.827-54.781-66.827-54.781l-1.313-0.655
			c0.898-0.248,4.879-0.666,10.339-4.774c8.732,3.509,15.298,11.298,18.333,16.903c3.065,5.677,20.061,20.075,20.061,20.075
			l16.058,15.775C321.635,240.352,327.565,246.519,324.984,247.809z"/>
		<path style="fill:#92E3A9;" d="M222.76,173.512c0,0-47.865-2.818-52.984-0.437c-5.119,2.38-4.982,14.318-3.427,18.568
			l61.223,3.589l0.053-2.829l0.143-0.764C227.769,191.639,221.458,187.232,222.76,173.512z"/>
		<path style="fill:#92E3A9;" d="M237.462,194.698c0,0-7.269,21.938-20.486,27.335c-24.153,9.864-34.083,30.658-53.738,54.224
			c0,0,13.994-23.184,21.784-35.54c11.522-18.277,23.882-23.512,29.608-26.93c12.995-7.757,19.069-19.582,19.069-19.582
			L237.462,194.698z"/>
		<path style="fill:#92E3A9;" d="M244.069,126.154c4.896,16.764,2.952,27.341,2.952,27.341h-7.018v-0.258l1.744-0.32
			c0,0,2.088-4.653-3.342-15.295c-2.595-5.086-3.498-3.641-4.568-18.629c-1.071-15.009,12.142-67.876,20.51-82.505
			C255.466,34.534,234.964,94.974,244.069,126.154z"/>
		<path style="fill:none;stroke:#263238;stroke-linecap:round;stroke-linejoin:round;stroke-miterlimit:10;" d="M237.462,160.633
			c-5.625,0.212-9.955,1.516-12.637,6.852c-3.939,7.836-3.535,18.294,2.944,24.155"/>
		<path style="fill:none;stroke:#263238;stroke-linecap:round;stroke-linejoin:round;stroke-miterlimit:10;" d="M249.92,195.296
			c10.516-2.076,19.874-7.86,20.252-13.16c0.368-5.15-5.854-12.198-14.392-16.804"/>
		<path style="fill:none;stroke:#263238;stroke-linecap:round;stroke-linejoin:round;stroke-miterlimit:10;" d="M256.584,165.78
			l-1.284-12.281h-16.722l-1.117,7.134c0,0,3.189-0.106,9.561,1.617"/>
		<path style="fill:none;stroke:#263238;stroke-linecap:round;stroke-linejoin:round;stroke-miterlimit:10;" d="M242.192,153.499
			c0,0,1.315-6.544-5.788-19.127c-7.103-12.583-0.071-42.26,5.884-63.628c5.955-21.367,10.953-36.8,15.952-37.749
			c4.999-0.95-4.209,54.369-4.735,78.348c-0.526,23.979-2.409,29.985-1.416,42.157"/>
		<path style="fill:none;stroke:#263238;stroke-linecap:round;stroke-linejoin:round;stroke-miterlimit:10;" d="M242.311,199.371
			c0-0.001-3.385-6.812-8.612-5.167c-4.421,6.318-9.669,13.512-16.38,17.889c-7.054,4.602-14.457,7.959-20.49,13.846
			c-5.907,5.764-10.582,12.527-14.713,19.463c-7.094,11.911-12.957,24.629-22.402,35.044c-0.799,0.88-1.665,2.089-1.029,3.076
			c0.724,1.122,2.569,0.747,3.815,0.133c7.741-3.815,12.481-10.984,17.899-17.075c4.296-4.829,8.568-9.676,12.871-14.5
			c9.873-11.071,19.792-22.109,29.88-33.012c3.814-4.123,7.648-8.232,11.567-12.27C235.293,206.205,242.493,199.738,242.311,199.371
			z"/>
		<path style="fill:none;stroke:#263238;stroke-linecap:round;stroke-linejoin:round;stroke-miterlimit:10;" d="M229.59,196.954
			c0,0-1.886-3.106-1.964-4.551c-0.078-1.446,3.191-6.078,3.191-6.078"/>
		<path style="fill:none;stroke:#263238;stroke-linecap:round;stroke-linejoin:round;stroke-miterlimit:10;" d="M240.651,203.474
			c0,0,3.222,1.497,4.444,0s5.325-9.096,5.325-9.096s-5.558-7.142-9.769-8.054"/>
		<path style="fill:none;stroke:#263238;stroke-linecap:round;stroke-linejoin:round;stroke-miterlimit:10;" d="M257.817,193.016
			c12.661,11.13,63.289,54.874,66.543,54.874c3.729,0-1.541-6.188-4.276-9.369c-2.735-3.181-28.841-24.314-36.051-36.129
			c-4.597-7.534-11.962-12.386-17.4-14.495"/>
		<path style="fill:none;stroke:#263238;stroke-linecap:round;stroke-linejoin:round;stroke-miterlimit:10;" d="M228.675,195.296
			l-13.97-0.814l-7.431-0.444l-17.505-1.022l-7.349-0.434l-16.071-0.939c0,0-2.745-14.687,3.427-18.568
			c4.17-2.632,16.803-6.296,26.464-8.464c4.634-1.042,8.587-1.744,10.59-1.806c1.703-0.052,4.036,0.072,6.533,0.289
			c3.097,0.268,6.43,0.671,9.104,1.022c1.239,0.155,3.355,0.19,4.211,0.314"/>
		
			<line style="fill:none;stroke:#263238;stroke-linecap:round;stroke-linejoin:round;stroke-miterlimit:10;" x1="208.704" y1="217.013" x2="209.672" y2="194.994"/>
		<path style="fill:none;stroke:#263238;stroke-linecap:round;stroke-linejoin:round;stroke-miterlimit:10;" d="M228.063,213.787
			c0.776,66.094,4.4,236.702,4.4,236.702h-33.609l8.328-213.566"/>
		<path style="fill:#263238;" d="M213.363,163.094c-4.046,1.29-19.786,6.471-21.489,9.331c-2.364,3.984-2.26,15.678-2.106,20.591
			l-7.349-0.434c-0.145-5.986-0.072-17.371,2.343-21.396c1.971-2.343,6.761-4.696,11.477-6.575c4.634-1.042,8.587-1.744,10.59-1.806
			C208.533,162.754,210.865,162.878,213.363,163.094z"/>
		<path style="fill:#263238;" d="M226.678,164.694c0,0-9.454,4.314-11.168,8.897c-1.435,3.819-1.001,16.659-0.805,20.891
			l-7.431-0.444c0.021-5.346,0.155-18.021,0.908-21.314c0.949-4.201,14.285-8.608,14.285-8.608l3.179,0.434L226.678,164.694z"/>
		<path style="fill:none;stroke:#263238;stroke-linecap:round;stroke-linejoin:round;stroke-miterlimit:10;" d="M228.803,263.406
			c-2.333,0.531-7.096,1.457-13.145,1.785v31.664c0,0,7.207,1.055,13.695-0.777"/>
		<path style="fill:#263238;" d="M228.48,201.5c-0.93,1.02-1.95,2.08-2.85,3.01c-10.18-2.45-16.23-10.35-16.23-10.35l19.02,1.59
			L228.48,201.5z"/>
	</g>
</g>
<g id="Plants">
	<g>
		<g>
			<path style="fill:#92E3A9;" d="M343.709,457.393c0.68-5.28,1.05-15-4.27-20.3c-7.55-7.55-18.87,4.71-21.7,4.71
				c-2.83,0-3.78-7.54-12.27-14.15c-8.49-6.61-18.87,1.89-24.53,0c-5.66-1.89,4.72-31.13-11.32-32.07
				c-16.04-0.94-21.7,39.62-33,39.62c-11.3,0-13.21-7.55-24.53-0.94c-8.87,5.17-13.68,17.86-15.35,23.13H343.709z"/>
			<path style="opacity:0.2;" d="M343.709,457.393c0.68-5.28,1.05-15-4.27-20.3c-7.55-7.55-18.87,4.71-21.7,4.71
				c-2.83,0-3.78-7.54-12.27-14.15c-8.49-6.61-18.87,1.89-24.53,0c-5.66-1.89,4.72-31.13-11.32-32.07
				c-16.04-0.94-21.7,39.62-33,39.62c-11.3,0-13.21-7.55-24.53-0.94c-8.87,5.17-13.68,17.86-15.35,23.13H343.709z"/>
		</g>
		<g>
			
				<line style="fill:none;stroke:#263238;stroke-linecap:round;stroke-linejoin:round;" x1="227.489" y1="456.746" x2="217.893" y2="441.163"/>
			
				<line style="fill:none;stroke:#263238;stroke-linecap:round;stroke-linejoin:round;" x1="264.303" y1="456.343" x2="269.363" y2="408.673"/>
			
				<line style="fill:none;stroke:#263238;stroke-linecap:round;stroke-linejoin:round;" x1="293.534" y1="456.746" x2="298.473" y2="438.633"/>
			
				<line style="fill:none;stroke:#263238;stroke-linecap:round;stroke-linejoin:round;" x1="329.448" y1="456.746" x2="334.333" y2="444.953"/>
			<polyline style="fill:none;stroke:#263238;stroke-linecap:round;stroke-linejoin:round;" points="228.863,441.583 
				223.803,450.443 211.993,445.803 			"/>
			<polyline style="fill:none;stroke:#263238;stroke-linecap:round;stroke-linejoin:round;" points="261.773,412.473 
				267.673,423.023 275.693,413.313 			"/>
			<polyline style="fill:none;stroke:#263238;stroke-linecap:round;stroke-linejoin:round;" points="258.393,429.353 
				265.993,438.633 273.583,432.723 			"/>
			
				<line style="fill:none;stroke:#263238;stroke-linecap:round;stroke-linejoin:round;" x1="296.363" y1="446.643" x2="306.483" y2="440.743"/>
			
				<line style="fill:none;stroke:#263238;stroke-linecap:round;stroke-linejoin:round;" x1="295.523" y1="450.023" x2="290.453" y2="436.943"/>
			
				<line style="fill:none;stroke:#263238;stroke-linecap:round;stroke-linejoin:round;" x1="331.803" y1="451.283" x2="329.263" y2="442.843"/>
			
				<line style="fill:none;stroke:#263238;stroke-linecap:round;stroke-linejoin:round;" x1="330.953" y1="452.973" x2="338.123" y2="450.023"/>
		</g>
	</g>
</g>
<g id="Clouds">
	<g>
		<path style="fill:none;stroke:#263238;stroke-miterlimit:10;" d="M431.18,143.726h41.239c0,0,2.01-6.077-5.314-10.067
			c-7.309-3.989-10.643-0.67-13.308-3.989c-2.665-3.319,7.324-11.984-12.638-20.632c0,0-1.34-18.7-28.626-19.308
			c-27.286-0.608-19.962,18.7-27.286,23.375c-7.324,4.675-9.35-2.665-16.643,1.995c-7.293,4.659-3.989,14.025-9.973,15.303
			c-5.984,1.278-14.025-5.984-21.302-1.325c-7.277,4.659-7.324,8.649-10.659,8.649c-3.335,0-9.973-2.665-14.025,0
			c-4.052,2.665-8.664,5.999-8.664,5.999h118.767"/>
		<path style="fill:none;stroke:#263238;stroke-miterlimit:10;" d="M64.09,263.021h94.374c0,0-2.585-1.868-4.855-3.361
			c-2.27-1.493-5.99,0-7.858,0c-1.868,0-1.895-2.235-5.972-4.846c-4.077-2.611-8.583,1.458-11.935,0.742
			c-3.353-0.716-1.502-5.963-5.588-8.574c-4.086-2.611-5.221,1.502-9.325-1.117c-4.104-2.619,0-13.437-15.288-13.097
			c-15.288,0.34-16.039,10.818-16.039,10.818c-11.185,4.846-5.588,9.7-7.081,11.56c-1.493,1.86-3.362,0-7.456,2.235
			C62.964,259.616,64.09,263.021,64.09,263.021z"/>
	</g>
</g>
<g id="Wind">
	<g>
		<path style="fill:none;stroke:#263238;stroke-linecap:round;stroke-linejoin:round;stroke-miterlimit:10;" d="M377.84,197.071
			c8.212-0.178,16.496,0.84,24.381,2.918c11.17,2.943,21.874,7.809,33.319,9.368c11.445,1.56,24.438-0.972,31.462-10.142"/>
		<path style="fill:none;stroke:#263238;stroke-linecap:round;stroke-linejoin:round;stroke-miterlimit:10;" d="M334.642,212.313
			c9.854-8.384,22.155-13.087,35.027-14.66"/>
		<path style="fill:none;stroke:#263238;stroke-linecap:round;stroke-linejoin:round;stroke-miterlimit:10;" d="M447.415,223.986
			c7.69-0.995,14.944-4.156,19.588-10.219"/>
		<path style="fill:none;stroke:#263238;stroke-linecap:round;stroke-linejoin:round;stroke-miterlimit:10;" d="M334.642,226.864
			c18.135-15.429,44.555-18.391,67.579-12.324c11.17,2.943,21.874,7.809,33.319,9.368c2.119,0.289,4.291,0.437,6.469,0.43"/>
		<path style="fill:none;stroke:#263238;stroke-linecap:round;stroke-linejoin:round;stroke-miterlimit:10;" d="M420.465,234.833
			c4.949,1.56,9.937,2.926,15.075,3.626c11.445,1.56,24.438-0.972,31.462-10.142"/>
		<path style="fill:none;stroke:#263238;stroke-linecap:round;stroke-linejoin:round;stroke-miterlimit:10;" d="M386.502,226.422
			c5.322,0.419,10.604,1.321,15.719,2.669c5.127,1.351,10.155,3.107,15.203,4.762"/>
		<path style="fill:none;stroke:#263238;stroke-linecap:round;stroke-linejoin:round;stroke-miterlimit:10;" d="M334.642,241.415
			c11.176-9.508,25.497-14.281,40.231-15.125"/>
	</g>
</g>
</svg>
